<svg version="1.1" id="Layer_1" xmlns="http://www.w3.org/2000/svg" xmlns:xlink="http://www.w3.org/1999/xlink" x="0px" y="0px"
	 width="100%" viewBox="0 0 904 791" enable-background="new 0 0 904 791" xml:space="preserve">
<path fill="#000000" opacity="1.000000" stroke="none" 
	d="
M505.000000,792.000000 
	C336.666718,792.000000 168.833435,792.000000 1.000113,792.000000 
	C1.000075,528.333435 1.000075,264.666931 1.000038,1.000289 
	C302.333099,1.000193 603.666199,1.000193 904.999512,1.000096 
	C904.999634,264.666351 904.999634,528.332703 904.999817,791.999512 
	C771.833313,792.000000 638.666687,792.000000 505.000000,792.000000 
M247.032684,616.985046 
	C247.032684,616.985046 247.099228,616.940186 246.830856,616.371277 
	C246.232407,616.294556 245.633957,616.217896 244.612579,615.982300 
	C244.612579,615.982300 244.161484,615.957153 243.813568,615.297058 
	C243.314255,614.886902 242.878525,614.282166 242.306320,614.095215 
	C229.939301,610.054321 217.696411,605.524475 205.126511,602.253723 
	C197.341751,600.228027 189.055710,600.128784 180.067780,599.022583 
	C169.586136,599.719177 159.069687,600.112915 148.645584,601.310425 
	C145.791626,601.638245 145.279648,601.357483 144.971298,598.846741 
	C143.720154,588.659668 141.500473,578.513306 141.193619,568.305115 
	C140.589142,548.195679 140.553650,528.081116 143.870209,508.053925 
	C146.980759,489.270752 152.221741,471.216919 160.538193,454.181671 
	C164.646347,445.766602 170.215836,438.064941 175.735718,429.745178 
	C184.593124,418.192383 195.178436,408.366791 207.068878,400.121399 
	C214.653183,394.862122 223.027603,390.742218 231.796738,386.006775 
	C246.402115,380.583191 260.981934,375.089172 275.628510,369.779236 
	C279.987488,368.198944 284.533844,367.135376 289.841003,365.983246 
	C297.066498,364.927094 304.277863,363.759399 311.520813,362.840973 
	C322.351166,361.467651 333.180298,359.979919 344.055145,359.098877 
	C351.326996,358.509766 358.677307,358.888947 366.854584,358.983765 
	C372.670074,359.654816 378.493011,360.267822 384.299530,361.009247 
	C395.916809,362.492554 407.551636,363.872040 419.127258,365.635681 
	C426.132965,366.703125 433.041168,368.410797 440.682281,370.178864 
	C449.751373,373.134613 458.820435,376.090332 467.969574,379.740845 
	C467.593201,380.801605 467.216858,381.862335 466.261414,383.156097 
	C466.133362,383.756409 466.005341,384.356689 465.327484,385.175720 
	C465.202911,385.740845 465.078308,386.306000 464.339020,387.153412 
	C459.527405,391.110046 455.022919,395.537018 449.838379,398.922607 
	C439.921448,405.398499 428.448181,407.815643 416.994080,409.953644 
	C410.380188,411.188171 403.697266,412.052795 395.392517,413.340149 
	C400.807281,418.197388 404.884888,422.204376 409.318024,425.769196 
	C425.552917,438.824188 443.752167,446.599396 465.916595,445.993744 
	C475.336975,444.986633 484.841248,444.445892 494.141602,442.772003 
	C498.667175,441.957428 502.811646,439.025543 507.910461,437.018707 
	C514.307617,434.164307 520.982727,431.794830 527.029480,428.329224 
	C534.129639,424.259857 535.110352,423.973297 541.380493,429.886902 
	C542.572144,431.010864 543.804016,432.092163 545.273193,433.791901 
	C551.535217,441.287323 558.146667,448.522339 563.974182,456.341614 
	C571.926147,467.011383 579.280945,478.126251 587.180420,489.691833 
	C594.592285,502.099945 602.059448,514.475464 609.399109,526.926147 
	C615.676331,537.574585 621.807190,548.309265 628.216064,559.711365 
	C631.134399,565.430908 634.075317,571.138977 636.966431,576.872192 
	C643.705933,590.237122 652.341125,602.179749 664.608765,610.920471 
	C672.261719,616.373230 680.390869,621.511292 690.949341,619.687073 
	C690.839111,618.442566 690.956848,617.263794 690.610107,616.242798 
	C686.949341,605.463318 683.582153,594.564819 679.427368,583.976379 
	C669.135498,557.747437 658.194153,531.782410 644.931763,506.881958 
	C641.306152,500.074890 637.075134,493.590240 633.005554,486.221100 
	C625.789062,475.134216 619.002808,463.732727 611.206482,453.069763 
	C605.912170,445.828827 599.201172,439.623749 592.832397,432.332092 
	C585.244019,424.881317 577.655640,417.430511 569.810913,409.347717 
	C567.697144,407.559174 565.561768,405.795410 563.472961,403.978088 
	C547.604614,390.171875 530.082886,378.754303 511.455048,369.152649 
	C499.873779,363.183167 487.977203,357.609924 475.742126,353.186554 
	C464.152588,348.996582 451.936859,346.538635 439.181396,343.053436 
	C434.120911,342.036835 429.100006,340.696136 423.991577,340.072052 
	C413.800934,338.827148 403.578522,337.744598 393.339142,337.021393 
	C381.240387,336.166840 369.109772,335.763123 356.065460,335.027191 
	C339.219452,335.685669 322.363464,336.166077 305.533356,337.108368 
	C300.310181,337.400787 295.157227,338.946503 289.119629,339.993042 
	C279.988861,341.996246 270.655792,343.358795 261.777863,346.162598 
	C250.330017,349.778046 239.246475,354.547028 227.254364,358.980469 
	C207.760315,367.611359 190.311462,379.283630 174.443283,394.045197 
	C174.336502,394.358917 174.229736,394.672638 174.002197,395.425781 
	C174.002197,395.425781 173.956970,395.879211 173.244965,395.979065 
	C172.789276,396.638397 172.333603,397.297699 171.281006,398.194977 
	C169.839340,399.755707 168.397690,401.316437 166.351837,403.146667 
	C165.073044,404.817871 163.794250,406.489105 162.552963,408.189880 
	C162.552963,408.189880 162.512039,408.161530 161.960617,408.592346 
	C159.653687,411.544098 156.983261,414.282532 155.103775,417.485138 
	C147.615387,430.245056 139.380630,442.704742 133.359161,456.143463 
	C128.671463,466.605377 126.848579,478.351746 123.761002,489.529602 
	C120.343025,501.903778 119.267670,514.613464 119.100296,527.347168 
	C118.948074,538.928650 119.094330,550.573181 120.147247,562.095032 
	C121.239891,574.051697 123.705338,585.877441 125.304657,597.796143 
	C125.867279,601.988953 126.632896,606.559814 125.554550,610.475891 
	C123.779442,616.922302 119.486977,622.760437 118.206604,629.240417 
	C115.591133,642.477356 113.141808,655.714478 114.722534,669.579285 
	C116.165649,682.236938 118.513336,694.458435 124.161301,705.766968 
	C127.725075,712.902527 132.644165,719.361145 137.003693,726.832397 
	C142.455261,733.435913 147.906830,740.039490 153.358398,746.643005 
	C153.848999,746.367249 154.339600,746.091431 154.830200,745.815613 
	C150.289429,729.736023 149.123993,713.319031 150.115768,696.819397 
	C150.600586,688.754150 152.141327,680.713440 153.736252,672.768494 
	C154.679245,668.071106 156.661438,663.582397 158.814819,658.700195 
	C163.810257,647.388184 172.477661,639.286011 182.785294,631.748230 
	C192.187820,628.444641 201.590363,625.141113 211.858261,621.976074 
	C225.492081,619.723206 239.149261,618.886536 252.874207,622.153503 
	C253.028824,621.574036 253.183441,620.994507 253.338058,620.415039 
	C251.604477,619.597717 249.870911,618.780334 247.936859,617.441101 
	C247.620850,617.266663 247.304825,617.092285 247.032684,616.985046 
M646.026672,240.966797 
	C646.026672,240.966797 646.096680,240.940460 645.850281,240.374619 
	C644.901672,239.648804 643.953125,238.922989 642.490479,237.946884 
	C642.034790,237.618622 641.579163,237.290359 640.927612,236.485153 
	C640.628845,236.378281 640.330017,236.271393 639.500977,235.944504 
	C639.041321,235.617203 638.581726,235.289886 637.927063,234.485519 
	C637.628479,234.378677 637.329834,234.271835 636.400269,233.864548 
	C627.618286,228.243958 618.824341,222.641968 610.069275,216.979782 
	C608.946655,216.253784 607.390747,215.375305 607.117737,214.294128 
	C605.563232,208.139801 604.805115,201.753830 602.890137,195.728210 
	C600.014099,186.679138 596.405518,177.862900 593.008545,168.252579 
	C592.284058,166.826675 591.559631,165.400772 590.858826,163.458023 
	C590.584167,163.263306 590.309448,163.068588 590.009155,162.122818 
	C589.794800,161.347595 589.744873,160.471848 589.341492,159.812241 
	C583.500366,150.261200 578.183289,140.318695 571.571045,131.330429 
	C565.176147,122.637627 557.828613,114.538094 550.152283,106.932159 
	C544.764099,101.593330 538.122314,97.519661 531.749939,92.261612 
	C525.766479,88.626740 520.086914,84.302361 513.735291,81.502762 
	C501.113098,75.939270 488.264709,70.794632 475.217529,66.331299 
	C469.157593,64.258247 462.413910,64.183937 455.322174,62.883183 
	C453.677460,62.398983 452.032776,61.914783 449.334656,61.120461 
	C469.036469,92.539497 485.371857,124.155701 482.235962,161.959061 
	C478.993347,161.639938 475.745636,161.003128 472.508942,161.054626 
	C455.009735,161.333023 437.513245,161.781921 419.132507,162.027054 
	C405.603027,163.668350 391.971741,164.732437 378.569916,167.097275 
	C361.884033,170.041565 345.307404,173.730225 328.840118,177.740234 
	C319.346832,180.051987 309.997040,183.207428 300.883148,186.755051 
	C290.739502,190.703476 280.937225,195.528809 270.320068,200.055954 
	C269.876282,200.108917 269.432465,200.161880 268.481720,200.160400 
	C268.299164,200.433350 268.116577,200.706299 267.283722,201.294189 
	C259.147278,205.849457 251.010849,210.404739 242.408630,215.012863 
	C242.408630,215.012863 241.964371,215.162338 241.454605,215.160843 
	C241.258682,215.429947 241.062775,215.699036 240.150970,216.008713 
	C239.396851,216.317444 238.569382,216.513763 237.899200,216.951111 
	C211.112518,234.431839 186.808243,254.671722 166.056564,279.228760 
	C149.880966,298.370636 136.343262,319.091370 124.932602,341.311066 
	C112.610451,365.305634 103.689659,390.592102 96.342293,416.471741 
	C95.020950,421.125885 94.091820,425.891418 92.981613,430.605530 
	C94.461739,429.716675 95.178558,428.631409 95.734138,427.469086 
	C101.727394,414.931000 106.826210,401.869385 113.847595,389.938416 
	C129.369537,363.562927 148.024231,339.522461 170.973373,319.017334 
	C187.154007,304.559937 203.959641,291.019226 223.356720,280.977173 
	C230.701752,277.174561 237.801865,272.898834 245.757690,268.933624 
	C254.227463,265.605316 262.563568,261.867279 271.199982,259.049835 
	C282.635803,255.319092 294.255615,252.114700 305.894287,249.056808 
	C313.541351,247.047668 321.361298,245.696609 329.950684,244.012848 
	C332.032715,243.674500 334.104187,243.237244 336.198517,243.014542 
	C346.464874,241.922897 356.737305,240.888336 367.935699,239.965378 
	C384.625580,240.589783 401.315491,241.214188 418.746704,241.971603 
	C419.495819,241.926300 420.244934,241.880997 421.425537,241.985397 
	C421.425537,241.985397 421.876678,242.056656 422.348022,242.758499 
	C434.686157,244.901520 447.214294,246.300049 459.311493,249.387207 
	C472.649811,252.791107 485.735413,257.359650 498.661530,262.148468 
	C508.612152,265.834930 518.145630,270.647461 527.023254,274.978363 
	C524.439453,274.651886 521.862183,274.112640 519.270813,274.033020 
	C500.589630,273.459015 481.961395,274.080414 463.844208,279.123199 
	C455.059235,281.568420 446.571320,285.080994 437.948914,288.110321 
	C448.925018,290.763031 459.593811,292.010590 470.101074,294.078705 
	C481.462006,296.314911 492.742493,299.056335 503.925110,302.070801 
	C512.375610,304.348755 520.617004,307.402679 529.224487,310.652405 
	C529.802856,310.808075 530.381287,310.963715 531.294006,311.707489 
	C532.178528,311.845428 533.063110,311.983337 534.276855,312.754791 
	C534.520142,312.981903 534.724182,313.305847 535.012207,313.422333 
	C554.330566,321.235382 571.888916,332.142029 589.188721,344.664276 
	C618.757568,366.985657 641.618286,394.923248 658.461670,428.037628 
	C658.751892,425.073700 658.514038,422.486755 657.978943,419.962860 
	C656.098022,411.091400 654.686401,402.064392 652.009949,393.433411 
	C649.323120,384.769226 645.337036,376.507935 642.304382,367.698639 
	C642.427612,367.570129 642.550903,367.441589 643.050903,367.607788 
	C643.269409,367.864960 643.546692,368.009003 644.173767,368.651245 
	C648.679565,373.828613 653.470886,378.787323 657.635315,384.226044 
	C668.299377,398.153137 677.239319,413.169281 684.562805,429.111084 
	C688.809021,438.354279 692.781616,447.723175 696.986755,457.826233 
	C698.792358,463.862823 700.353821,469.985565 702.447510,475.920532 
	C709.921692,497.107574 713.810791,519.031738 715.931030,541.291443 
	C716.777039,550.172974 717.221619,559.140076 717.090088,568.057007 
	C716.855530,583.959167 716.044189,599.852783 715.435242,616.831360 
	C721.276489,614.237305 728.330322,612.481445 733.673706,608.455444 
	C746.161255,599.046692 751.646423,585.072937 752.747986,570.102539 
	C753.866455,554.902100 754.114258,539.446045 748.926697,524.589417 
	C748.464539,523.265930 748.815247,521.069702 749.671997,519.962463 
	C763.974670,501.478302 771.109436,480.137695 772.790222,457.274994 
	C774.481628,434.266724 771.741882,411.604462 764.393311,389.403656 
	C757.608521,368.905731 748.103210,349.991333 736.537292,331.883209 
	C726.376526,315.975037 714.165955,301.807587 701.019653,287.574585 
	C692.772766,279.652313 684.846802,271.356720 676.188660,263.912781 
	C667.530762,256.469025 658.140564,249.876907 649.047791,242.961426 
	C649.047791,242.961426 649.098083,242.939148 648.823669,242.347244 
	C647.900452,241.863876 646.977173,241.380508 646.026672,240.966797 
z"/>
<path fill="#119DC9" opacity="1.000000" stroke="none" 
	d="
M701.328735,288.099548 
	C714.165955,301.807587 726.376526,315.975037 736.537292,331.883209 
	C748.103210,349.991333 757.608521,368.905731 764.393311,389.403656 
	C771.741882,411.604462 774.481628,434.266724 772.790222,457.274994 
	C771.109436,480.137695 763.974670,501.478302 749.671997,519.962463 
	C748.815247,521.069702 748.464539,523.265930 748.926697,524.589417 
	C754.114258,539.446045 753.866455,554.902100 752.747986,570.102539 
	C751.646423,585.072937 746.161255,599.046692 733.673706,608.455444 
	C728.330322,612.481445 721.276489,614.237305 715.435242,616.831360 
	C716.044189,599.852783 716.855530,583.959167 717.090088,568.057007 
	C717.221619,559.140076 716.777039,550.172974 715.931030,541.291443 
	C713.810791,519.031738 709.921692,497.107574 702.447510,475.920532 
	C700.353821,469.985565 698.792358,463.862823 697.281616,457.526428 
	C700.050598,462.330505 702.496765,467.448242 705.019531,472.527954 
	C705.602722,473.702179 706.447815,474.746277 707.172363,475.850281 
	C708.607788,474.118103 708.972168,472.734924 708.972900,471.351593 
	C709.000793,416.627838 709.020447,361.904022 708.947205,307.180359 
	C708.941467,302.855652 708.077209,298.835419 704.435791,295.523621 
	C702.637207,293.887787 702.317566,290.625763 701.328735,288.099548 
z"/>
<path fill="#148CB6" opacity="1.000000" stroke="none" 
	d="
M533.947632,312.121277 
	C533.063110,311.983337 532.178528,311.845428 531.076782,311.149658 
	C530.223572,310.431610 529.587524,310.271423 528.951477,310.111237 
	C520.617004,307.402679 512.375610,304.348755 503.925110,302.070801 
	C492.742493,299.056335 481.462006,296.314911 470.101074,294.078705 
	C459.593811,292.010590 448.925018,290.763031 437.948914,288.110321 
	C446.571320,285.080994 455.059235,281.568420 463.844208,279.123199 
	C481.961395,274.080414 500.589630,273.459015 519.270813,274.033020 
	C521.862183,274.112640 524.439453,274.651886 527.764221,274.990234 
	C529.452942,275.061676 530.400696,275.121246 532.149414,275.231140 
	C530.945129,273.217010 530.190491,271.794373 529.289001,270.471741 
	C518.659058,254.874954 506.061584,241.127502 491.082581,229.575287 
	C474.005219,216.404694 455.601837,205.710327 434.680878,198.856720 
	C431.235291,197.471817 428.114258,196.248978 425.249390,194.757416 
	C426.334503,192.800964 427.805786,191.140350 427.878387,189.420685 
	C428.157593,182.807831 427.965424,176.175964 427.998505,169.551437 
	C428.012085,166.833496 427.045624,165.329300 424.077728,164.883392 
	C422.620880,164.664520 421.363495,163.117828 420.015839,162.172058 
	C437.513245,161.781921 455.009735,161.333023 472.508942,161.054626 
	C475.745636,161.003128 478.993347,161.639938 482.793274,162.139038 
	C483.901581,162.549942 484.452576,162.780869 485.317749,163.233704 
	C488.887360,164.082458 492.145416,164.695694 495.397552,165.339066 
	C501.384399,166.523422 502.972015,165.303436 502.984375,159.159119 
	C503.023560,139.682541 502.925568,120.205391 503.047791,100.729515 
	C503.080048,95.592484 501.097809,91.725807 497.095642,88.767471 
	C493.089630,85.806320 489.023407,82.926605 484.675232,79.860710 
	C478.363983,76.260666 472.351379,72.827797 466.361877,69.355171 
	C462.882141,67.337654 459.439484,65.256241 455.980164,63.203560 
	C462.413910,64.183937 469.157593,64.258247 475.217529,66.331299 
	C488.264709,70.794632 501.113098,75.939270 513.735291,81.502762 
	C520.086914,84.302361 525.766479,88.626740 531.949280,92.916740 
	C534.058228,95.796501 535.715698,98.322609 537.934082,100.178017 
	C541.643982,103.280846 543.302673,106.818771 543.095642,111.763557 
	C542.743835,120.166801 542.991699,128.595154 542.708252,136.827911 
	C537.565857,130.347977 532.800171,123.973473 527.768982,117.815918 
	C526.557983,116.333771 524.466675,115.570877 522.780212,114.477219 
	C522.188843,116.247307 521.099792,118.013039 521.084167,119.788170 
	C520.948853,135.248184 521.094727,150.710709 520.951538,166.170578 
	C520.908752,170.797424 522.928162,173.547333 526.937988,175.519379 
	C533.037109,178.518936 538.985107,181.825638 544.684326,185.234680 
	C543.914307,187.671646 543.063416,189.874969 543.058594,192.080124 
	C542.976929,229.740448 543.005859,267.401001 542.984375,305.061493 
	C542.983215,307.149719 542.755798,309.237823 542.655762,310.949371 
	C539.323608,311.397797 536.635620,311.759552 533.947632,312.121277 
z"/>
<path fill="#1391BB" opacity="1.000000" stroke="none" 
	d="
M542.987549,137.012955 
	C542.991699,128.595154 542.743835,120.166801 543.095642,111.763557 
	C543.302673,106.818771 541.643982,103.280846 537.934082,100.178017 
	C535.715698,98.322609 534.058228,95.796501 532.094482,93.226440 
	C538.122314,97.519661 544.764099,101.593330 550.152283,106.932159 
	C557.828613,114.538094 565.176147,122.637627 571.571045,131.330429 
	C578.183289,140.318695 583.500366,150.261200 589.341492,159.812241 
	C589.744873,160.471848 589.794800,161.347595 590.128723,162.700470 
	C590.405762,163.542450 590.601379,163.774704 590.835144,163.974869 
	C591.559631,165.400772 592.284058,166.826675 592.835327,168.870087 
	C592.855469,171.081940 592.966248,172.691406 593.255005,174.268311 
	C596.152527,190.094833 601.115662,205.854279 601.597473,221.750809 
	C602.808472,261.704376 602.007690,301.719238 601.967224,341.709473 
	C601.965515,343.364166 601.495483,345.018372 601.284607,346.403748 
	C596.647644,345.520447 592.765625,344.780975 588.883545,344.041473 
	C571.888916,332.142029 554.330566,321.235382 535.012207,313.422333 
	C534.724182,313.305847 534.520142,312.981903 534.112244,312.438049 
	C536.635620,311.759552 539.323608,311.397797 542.655762,310.949371 
	C542.755798,309.237823 542.983215,307.149719 542.984375,305.061493 
	C543.005859,267.401001 542.976929,229.740448 543.058594,192.080124 
	C543.063416,189.874969 543.914307,187.671646 544.995972,185.384811 
	C553.128540,190.262177 560.636536,195.222183 568.546448,200.447708 
	C568.321777,199.038895 568.308777,197.884842 567.947021,196.853043 
	C563.568604,184.365509 559.534302,171.736130 554.579041,159.479752 
	C551.433838,151.700287 546.899170,144.482590 542.987549,137.012955 
z"/>
<path fill="#1299C4" opacity="1.000000" stroke="none" 
	d="
M701.174194,287.837067 
	C702.317566,290.625763 702.637207,293.887787 704.435791,295.523621 
	C708.077209,298.835419 708.941467,302.855652 708.947205,307.180359 
	C709.020447,361.904022 709.000793,416.627838 708.972900,471.351593 
	C708.972168,472.734924 708.607788,474.118103 707.172363,475.850281 
	C706.447815,474.746277 705.602722,473.702179 705.019531,472.527954 
	C702.496765,467.448242 700.050598,462.330505 697.226929,457.131042 
	C692.781616,447.723175 688.809021,438.354279 684.562805,429.111084 
	C677.239319,413.169281 668.299377,398.153137 657.635315,384.226044 
	C653.470886,378.787323 648.679565,373.828613 644.436157,368.342529 
	C646.482361,368.202759 648.266235,368.371704 651.306702,368.659668 
	C649.448059,326.490143 653.598816,284.666138 649.071411,242.911469 
	C658.140564,249.876907 667.530762,256.469025 676.188660,263.912781 
	C684.846802,271.356720 692.772766,279.652313 701.174194,287.837067 
z"/>
<path fill="#1395C0" opacity="1.000000" stroke="none" 
	d="
M649.059570,242.936447 
	C653.598816,284.666138 649.448059,326.490143 651.306702,368.659668 
	C648.266235,368.371704 646.482361,368.202759 644.290649,368.036835 
	C643.546692,368.009003 643.269409,367.864960 642.678040,367.250702 
	C641.946838,366.788910 641.588501,366.684204 641.230164,366.579468 
	C641.460205,367.076355 641.690247,367.573212 641.920349,368.070068 
	C645.337036,376.507935 649.323120,384.769226 652.009949,393.433411 
	C654.686401,402.064392 656.098022,411.091400 657.978943,419.962860 
	C658.514038,422.486755 658.751892,425.073700 658.461670,428.037628 
	C641.618286,394.923248 618.757568,366.985657 589.036133,344.352875 
	C592.765625,344.780975 596.647644,345.520447 601.284607,346.403748 
	C601.495483,345.018372 601.965515,343.364166 601.967224,341.709473 
	C602.007690,301.719238 602.808472,261.704376 601.597473,221.750809 
	C601.115662,205.854279 596.152527,190.094833 593.255005,174.268311 
	C592.966248,172.691406 592.855469,171.081940 592.885254,169.217621 
	C596.405518,177.862900 600.014099,186.679138 602.890137,195.728210 
	C604.805115,201.753830 605.563232,208.139801 607.117737,214.294128 
	C607.390747,215.375305 608.946655,216.253784 610.069275,216.979782 
	C618.824341,222.641968 627.618286,228.243958 636.876160,234.175247 
	C637.587646,234.678925 637.844299,234.837799 638.122070,234.962570 
	C638.581726,235.289886 639.041321,235.617203 639.926697,236.215057 
	C640.588257,236.678696 640.845276,236.837509 641.123474,236.962097 
	C641.579163,237.290359 642.034790,237.618622 642.783508,238.414749 
	C644.083252,239.568573 645.089966,240.254517 646.096680,240.940460 
	C646.096680,240.940460 646.026672,240.966797 646.131104,241.260986 
	C647.189758,242.016510 648.143921,242.477829 649.098083,242.939148 
	C649.098083,242.939148 649.047791,242.961426 649.059570,242.936447 
z"/>
<path fill="#16EBD7" opacity="1.000000" stroke="none" 
	d="
M175.124115,430.040497 
	C170.215836,438.064941 164.646347,445.766602 160.538193,454.181671 
	C152.221741,471.216919 146.980759,489.270752 143.870209,508.053925 
	C140.553650,528.081116 140.589142,548.195679 141.193619,568.305115 
	C141.500473,578.513306 143.720154,588.659668 144.971298,598.846741 
	C145.279648,601.357483 145.791626,601.638245 148.645584,601.310425 
	C159.069687,600.112915 169.586136,599.719177 180.358429,599.435547 
	C176.623154,600.232788 172.603943,600.824219 168.569809,600.954651 
	C161.907608,601.170105 160.094009,602.819336 160.014984,609.583435 
	C159.954956,614.723267 160.005096,619.864380 159.864365,625.195679 
	C159.513245,625.628174 159.273056,625.833679 158.666061,626.024536 
	C157.554886,626.698792 156.779617,627.351440 155.858063,628.252075 
	C155.142395,629.001709 154.573013,629.503296 153.683731,630.097534 
	C150.073929,633.471436 146.675919,636.652344 143.517532,640.055542 
	C137.658295,646.369202 133.851883,653.843018 134.113892,662.510864 
	C134.755157,683.724915 131.509064,705.126648 136.955338,726.123413 
	C132.644165,719.361145 127.725075,712.902527 124.161301,705.766968 
	C118.513336,694.458435 116.165649,682.236938 114.722534,669.579285 
	C113.141808,655.714478 115.591133,642.477356 118.206604,629.240417 
	C119.486977,622.760437 123.779442,616.922302 125.554550,610.475891 
	C126.632896,606.559814 125.867279,601.988953 125.304657,597.796143 
	C123.705338,585.877441 121.239891,574.051697 120.147247,562.095032 
	C119.094330,550.573181 118.948074,538.928650 119.100296,527.347168 
	C119.267670,514.613464 120.343025,501.903778 123.761002,489.529602 
	C126.848579,478.351746 128.671463,466.605377 133.359161,456.143463 
	C139.380630,442.704742 147.615387,430.245056 155.103775,417.485138 
	C156.983261,414.282532 159.653687,411.544098 162.332550,408.893585 
	C162.911636,419.637878 163.118759,430.080963 163.325897,440.524017 
	C163.863220,440.553619 164.400558,440.583221 164.937881,440.612854 
	C165.470230,439.839417 165.897720,438.960114 166.553146,438.310913 
	C169.373672,435.517303 172.261078,432.791199 175.124115,430.040497 
z"/>
<path fill="#1681AA" opacity="1.000000" stroke="none" 
	d="
M241.964371,215.162338 
	C241.964371,215.162338 242.408630,215.012863 243.047211,214.990570 
	C247.420013,213.847610 251.154251,212.726944 255.122086,211.536194 
	C255.368622,212.079849 255.853668,212.652512 255.855911,213.227081 
	C255.913742,228.037460 256.053467,242.850601 255.765549,257.655212 
	C255.730637,259.450012 253.536911,261.394714 251.998398,262.922150 
	C249.839783,265.065247 247.357452,266.882263 245.013611,268.838745 
	C237.801865,272.898834 230.701752,277.174561 223.356720,280.977173 
	C203.959641,291.019226 187.154007,304.559937 170.973373,319.017334 
	C148.024231,339.522461 129.369537,363.562927 113.847595,389.938416 
	C106.826210,401.869385 101.727394,414.931000 95.734138,427.469086 
	C95.178558,428.631409 94.461739,429.716675 92.981613,430.605530 
	C94.091820,425.891418 95.020950,421.125885 96.342293,416.471741 
	C103.689659,390.592102 112.610451,365.305634 124.932602,341.311066 
	C136.343262,319.091370 149.880966,298.370636 166.056564,279.228760 
	C186.808243,254.671722 211.112518,234.431839 237.899200,216.951111 
	C238.569382,216.513763 239.396851,216.317444 240.708618,215.877380 
	C241.533173,215.592377 241.765869,215.397797 241.964371,215.162338 
z"/>
<path fill="#148CB6" opacity="1.000000" stroke="none" 
	d="
M245.385651,268.886169 
	C247.357452,266.882263 249.839783,265.065247 251.998398,262.922150 
	C253.536911,261.394714 255.730637,259.450012 255.765549,257.655212 
	C256.053467,242.850601 255.913742,228.037460 255.855911,213.227081 
	C255.853668,212.652512 255.368622,212.079849 255.122086,211.536194 
	C251.154251,212.726944 247.420013,213.847610 243.280090,214.964142 
	C251.010849,210.404739 259.147278,205.849457 267.807343,201.043106 
	C268.580353,200.634003 268.799591,200.441605 268.988678,200.214844 
	C269.432465,200.161880 269.876282,200.108917 270.917114,200.204529 
	C274.857239,199.567581 278.174988,198.646042 281.547516,198.019241 
	C299.694214,194.646545 317.854523,191.347107 336.006958,188.488739 
	C336.002167,203.918930 335.945770,218.883072 336.033478,233.846375 
	C336.058777,238.160049 335.063934,241.403656 330.142578,242.128983 
	C329.711273,242.192566 329.446136,243.383530 329.103821,244.050858 
	C321.361298,245.696609 313.541351,247.047668 305.894287,249.056808 
	C294.255615,252.114700 282.635803,255.319092 271.199982,259.049835 
	C262.563568,261.867279 254.227463,265.605316 245.385651,268.886169 
z"/>
<path fill="#29C5B9" opacity="1.000000" stroke="none" 
	d="
M633.121948,486.957642 
	C637.075134,493.590240 641.306152,500.074890 644.931763,506.881958 
	C658.194153,531.782410 669.135498,557.747437 679.427368,583.976379 
	C683.582153,594.564819 686.949341,605.463318 690.610107,616.242798 
	C690.956848,617.263794 690.839111,618.442566 690.949341,619.687073 
	C680.390869,621.511292 672.261719,616.373230 664.608765,610.920471 
	C652.341125,602.179749 643.705933,590.237122 636.966431,576.872192 
	C634.075317,571.138977 631.134399,565.430908 628.330750,559.051880 
	C627.963989,553.515320 627.114929,548.641724 627.067383,543.760315 
	C626.897827,526.364563 626.984863,508.966187 627.025757,491.568909 
	C627.029785,489.869141 627.384766,488.170258 627.593262,486.325775 
	C629.876648,486.586731 631.499329,486.772186 633.121948,486.957642 
z"/>
<path fill="#25CCBE" opacity="1.000000" stroke="none" 
	d="
M633.063721,486.589355 
	C631.499329,486.772186 629.876648,486.586731 627.593262,486.325775 
	C627.384766,488.170258 627.029785,489.869141 627.025757,491.568909 
	C626.984863,508.966187 626.897827,526.364563 627.067383,543.760315 
	C627.114929,548.641724 627.963989,553.515320 628.224121,558.699158 
	C621.807190,548.309265 615.676331,537.574585 609.399109,526.926147 
	C602.059448,514.475464 594.592285,502.099945 587.236328,489.101837 
	C586.861511,482.786774 586.165710,477.066681 586.057373,471.335510 
	C585.856812,460.728027 585.998047,450.114044 586.000610,439.502747 
	C586.002441,431.988831 586.005188,431.988831 593.123718,432.955444 
	C599.201172,439.623749 605.912170,445.828827 611.206482,453.069763 
	C619.002808,463.732727 625.789062,475.134216 633.063721,486.589355 
z"/>
<path fill="#1299C4" opacity="1.000000" stroke="none" 
	d="
M435.005402,199.018799 
	C455.601837,205.710327 474.005219,216.404694 491.082581,229.575287 
	C506.061584,241.127502 518.659058,254.874954 529.289001,270.471741 
	C530.190491,271.794373 530.945129,273.217010 532.149414,275.231140 
	C530.400696,275.121246 529.452942,275.061676 528.184875,274.980682 
	C518.145630,270.647461 508.612152,265.834930 498.661530,262.148468 
	C485.735413,257.359650 472.649811,252.791107 459.311493,249.387207 
	C447.214294,246.300049 434.686157,244.901520 422.460266,242.251038 
	C424.965668,241.222275 427.452759,240.019348 429.730865,240.333237 
	C433.515594,240.854706 434.009521,239.041367 433.998138,236.166061 
	C433.979797,231.529327 433.882263,226.888870 434.025909,222.256439 
	C434.266235,214.507889 434.670288,206.764404 435.005402,199.018799 
z"/>
<path fill="#1395C0" opacity="1.000000" stroke="none" 
	d="
M434.680878,198.856720 
	C434.670288,206.764404 434.266235,214.507889 434.025909,222.256439 
	C433.882263,226.888870 433.979797,231.529327 433.998138,236.166061 
	C434.009521,239.041367 433.515594,240.854706 429.730865,240.333237 
	C427.452759,240.019348 424.965668,241.222275 422.224579,241.900116 
	C421.876678,242.056656 421.425537,241.985397 421.113770,241.634460 
	C419.869812,241.468552 418.937592,241.653564 418.005371,241.838593 
	C401.315491,241.214188 384.625580,240.589783 367.641663,239.560913 
	C368.886871,238.770782 370.474640,237.926559 371.956482,238.083344 
	C376.882446,238.604523 378.197784,236.480148 378.091736,231.792145 
	C377.817688,219.679993 377.889313,207.555664 378.091583,195.440689 
	C378.133423,192.935852 379.339417,190.450470 380.468018,187.960846 
	C384.396362,188.169968 387.924652,188.039658 391.323883,188.640030 
	C402.572083,190.626724 413.773712,192.877014 424.993195,195.026154 
	C428.114258,196.248978 431.235291,197.471817 434.680878,198.856720 
z"/>
<path fill="#1681AA" opacity="1.000000" stroke="none" 
	d="
M425.249390,194.757416 
	C413.773712,192.877014 402.572083,190.626724 391.323883,188.640030 
	C387.924652,188.039658 384.396362,188.169968 380.121216,187.736847 
	C364.880219,187.679535 350.445190,187.850967 336.010132,188.022400 
	C317.854523,191.347107 299.694214,194.646545 281.547516,198.019241 
	C278.174988,198.646042 274.857239,199.567581 271.250244,200.162750 
	C280.937225,195.528809 290.739502,190.703476 300.883148,186.755051 
	C309.997040,183.207428 319.346832,180.051987 328.840118,177.740234 
	C345.307404,173.730225 361.884033,170.041565 378.569916,167.097275 
	C391.971741,164.732437 405.603027,163.668350 419.574158,162.099548 
	C421.363495,163.117828 422.620880,164.664520 424.077728,164.883392 
	C427.045624,165.329300 428.012085,166.833496 427.998505,169.551437 
	C427.965424,176.175964 428.157593,182.807831 427.878387,189.420685 
	C427.805786,191.140350 426.334503,192.800964 425.249390,194.757416 
M415.503754,163.470123 
	C415.503754,163.470123 415.521393,163.514023 415.503754,163.470123 
z"/>
<path fill="#1CE0CE" opacity="1.000000" stroke="none" 
	d="
M466.840454,382.923096 
	C467.216858,381.862335 467.593201,380.801605 468.313416,379.227539 
	C470.607880,378.482269 472.593719,377.892120 474.503204,378.079559 
	C483.341766,378.947052 492.159119,380.030579 500.980835,381.459412 
	C500.651703,386.350159 500.103790,390.815247 500.044495,395.286804 
	C499.905365,405.783783 499.999573,416.283844 500.000183,426.782654 
	C500.000641,434.710510 500.001190,434.710510 507.128662,437.052124 
	C502.811646,439.025543 498.667175,441.957428 494.141602,442.772003 
	C484.841248,444.445892 475.336975,444.986633 465.371002,445.569733 
	C463.884430,442.591797 462.045593,440.001434 462.147461,437.489807 
	C462.832275,420.606354 459.497345,403.481262 464.953735,386.871124 
	C465.078308,386.306000 465.202911,385.740845 465.867737,385.014435 
	C466.552185,384.209808 466.696320,383.566437 466.840454,382.923096 
z"/>
<path fill="#25CCBE" opacity="1.000000" stroke="none" 
	d="
M500.984070,381.036713 
	C492.159119,380.030579 483.341766,378.947052 474.503204,378.079559 
	C472.593719,377.892120 470.607880,378.482269 468.273376,378.880157 
	C458.820435,376.090332 449.751373,373.134613 440.201477,369.691711 
	C430.223755,367.192993 428.918732,360.463776 429.984802,352.344330 
	C430.092163,351.526520 430.043243,350.681030 429.999786,349.851898 
	C429.826630,346.545685 431.251984,345.022858 434.683990,344.918640 
	C436.469391,344.864410 438.226593,343.882019 439.996552,343.318909 
	C451.936859,346.538635 464.152588,348.996582 475.742126,353.186554 
	C487.977203,357.609924 499.873779,363.183167 511.455048,369.152649 
	C530.082886,378.754303 547.604614,390.171875 563.472961,403.978088 
	C565.561768,405.795410 567.697144,407.559174 569.571472,409.652283 
	C567.897095,409.204529 566.448669,408.476654 565.029358,407.695801 
	C557.349792,403.470703 549.677307,399.232483 541.758545,394.754608 
	C528.004395,390.019196 514.494263,385.527954 500.984070,381.036713 
z"/>
<path fill="#1391BB" opacity="1.000000" stroke="none" 
	d="
M336.006958,188.488754 
	C350.445190,187.850967 364.880219,187.679535 379.662048,187.732117 
	C379.339417,190.450470 378.133423,192.935852 378.091583,195.440689 
	C377.889313,207.555664 377.817688,219.679993 378.091736,231.792145 
	C378.197784,236.480148 376.882446,238.604523 371.956482,238.083344 
	C370.474640,237.926559 368.886871,238.770782 367.177612,239.495026 
	C356.737305,240.888336 346.464874,241.922897 336.198517,243.014542 
	C334.104187,243.237244 332.032715,243.674500 329.527252,244.031860 
	C329.446136,243.383530 329.711273,242.192566 330.142578,242.128983 
	C335.063934,241.403656 336.058777,238.160049 336.033478,233.846375 
	C335.945770,218.883072 336.002167,203.918930 336.006958,188.488754 
z"/>
<path fill="#22D2C3" opacity="1.000000" stroke="none" 
	d="
M542.002441,394.998779 
	C549.677307,399.232483 557.349792,403.470703 565.029358,407.695801 
	C566.448669,408.476654 567.897095,409.204529 569.699646,409.968262 
	C577.655640,417.430511 585.244019,424.881317 592.978027,432.643768 
	C586.005188,431.988831 586.002441,431.988831 586.000610,439.502747 
	C585.998047,450.114044 585.856812,460.728027 586.057373,471.335510 
	C586.165710,477.066681 586.861511,482.786774 587.092041,488.781067 
	C579.280945,478.126251 571.926147,467.011383 563.974182,456.341614 
	C558.146667,448.522339 551.535217,441.287323 545.121643,433.099060 
	C541.846130,426.433075 541.816956,419.993378 541.969238,413.481354 
	C542.113220,407.323608 542.001648,401.159882 542.002441,394.998779 
z"/>
<path fill="#22D2C3" opacity="1.000000" stroke="none" 
	d="
M439.588989,343.186188 
	C438.226593,343.882019 436.469391,344.864410 434.683990,344.918640 
	C431.251984,345.022858 429.826630,346.545685 429.999786,349.851898 
	C430.043243,350.681030 430.092163,351.526520 429.984802,352.344330 
	C428.918732,360.463776 430.223755,367.192993 439.856934,369.517700 
	C433.041168,368.410797 426.132965,366.703125 419.127258,365.635681 
	C407.551636,363.872040 395.916809,362.492554 384.299530,361.009247 
	C378.493011,360.267822 372.670074,359.654816 366.257660,358.573639 
	C361.659790,357.434021 357.595093,356.937012 353.688019,355.865295 
	C352.030273,355.410583 349.572937,353.876404 349.432220,352.614929 
	C348.959229,348.375610 348.764374,343.894562 349.740387,339.811371 
	C350.113403,338.250946 353.952942,337.546448 356.171417,336.373688 
	C356.552032,336.172455 356.724396,335.577179 356.992981,335.163940 
	C369.109772,335.763123 381.240387,336.166840 393.339142,337.021393 
	C403.578522,337.744598 413.800934,338.827148 423.991577,340.072052 
	C429.100006,340.696136 434.120911,342.036835 439.588989,343.186188 
z"/>
<path fill="#19E5D2" opacity="1.000000" stroke="none" 
	d="
M464.646362,387.012268 
	C459.497345,403.481262 462.832275,420.606354 462.147461,437.489807 
	C462.045593,440.001434 463.884430,442.591797 464.910614,445.493774 
	C443.752167,446.599396 425.552917,438.824188 409.318024,425.769196 
	C404.884888,422.204376 400.807281,418.197388 395.392517,413.340149 
	C403.697266,412.052795 410.380188,411.188171 416.994080,409.953644 
	C428.448181,407.815643 439.921448,405.398499 449.838379,398.922607 
	C455.022919,395.537018 459.527405,391.110046 464.646362,387.012268 
z"/>
<path fill="#19E5D2" opacity="1.000000" stroke="none" 
	d="
M175.429932,429.892822 
	C172.261078,432.791199 169.373672,435.517303 166.553146,438.310913 
	C165.897720,438.960114 165.470230,439.839417 164.937881,440.612854 
	C164.400558,440.583221 163.863220,440.553619 163.325897,440.524017 
	C163.118759,430.080963 162.911636,419.637878 162.608276,408.678162 
	C162.512039,408.161530 162.552963,408.189880 162.917664,408.330444 
	C168.038055,408.925415 166.649460,405.344666 166.956055,402.877197 
	C168.397690,401.316437 169.839340,399.755707 171.891266,397.999390 
	C172.986679,397.162262 173.471817,396.520752 173.956970,395.879211 
	C173.956970,395.879211 174.002197,395.425781 174.231079,395.087341 
	C174.672363,394.570160 174.849976,394.361786 174.992783,394.123718 
	C190.311462,379.283630 207.760315,367.611359 227.611633,359.276093 
	C227.080643,360.867340 226.232544,362.192993 225.293030,363.450348 
	C224.321243,364.750854 222.447510,365.942139 222.378281,367.255554 
	C222.061310,373.267853 222.238937,379.306244 222.238937,384.937408 
	C225.703430,385.399170 228.375580,385.755310 231.047745,386.111450 
	C223.027603,390.742218 214.653183,394.862122 207.068878,400.121399 
	C195.178436,408.366791 184.593124,418.192383 175.429932,429.892822 
z"/>
<path fill="#1EDAC9" opacity="1.000000" stroke="none" 
	d="
M541.758545,394.754608 
	C542.001648,401.159882 542.113220,407.323608 541.969238,413.481354 
	C541.816956,419.993378 541.846130,426.433075 544.993713,432.799683 
	C543.804016,432.092163 542.572144,431.010864 541.380493,429.886902 
	C535.110352,423.973297 534.129639,424.259857 527.029480,428.329224 
	C520.982727,431.794830 514.307617,434.164307 507.519562,437.035431 
	C500.001190,434.710510 500.000641,434.710510 500.000183,426.782654 
	C499.999573,416.283844 499.905365,405.783783 500.044495,395.286804 
	C500.103790,390.815247 500.651703,386.350159 500.980835,381.459412 
	C514.494263,385.527954 528.004395,390.019196 541.758545,394.754608 
z"/>
<path fill="#1EDAC9" opacity="1.000000" stroke="none" 
	d="
M356.529236,335.095581 
	C356.724396,335.577179 356.552032,336.172455 356.171417,336.373688 
	C353.952942,337.546448 350.113403,338.250946 349.740387,339.811371 
	C348.764374,343.894562 348.959229,348.375610 349.432220,352.614929 
	C349.572937,353.876404 352.030273,355.410583 353.688019,355.865295 
	C357.595093,356.937012 361.659790,357.434021 365.826599,358.499176 
	C358.677307,358.888947 351.326996,358.509766 344.055145,359.098877 
	C333.180298,359.979919 322.351166,361.467651 311.520813,362.840973 
	C304.277863,363.759399 297.066498,364.927094 289.291321,365.616577 
	C279.997192,363.693817 279.997192,363.693817 280.000000,353.652740 
	C280.000214,352.825500 280.072906,351.990753 279.988617,351.172241 
	C279.522644,346.647797 281.431580,344.036438 285.920380,342.908661 
	C287.426300,342.530273 288.630188,340.949585 289.972107,339.918457 
	C295.157227,338.946503 300.310181,337.400787 305.533356,337.108368 
	C322.363464,336.166077 339.219452,335.685669 356.529236,335.095581 
z"/>
<path fill="#19E5D2" opacity="1.000000" stroke="none" 
	d="
M136.979523,726.477905 
	C131.509064,705.126648 134.755157,683.724915 134.113892,662.510864 
	C133.851883,653.843018 137.658295,646.369202 143.517532,640.055542 
	C146.675919,636.652344 150.073929,633.471436 153.674622,630.523743 
	C153.540649,640.313049 153.095871,649.768738 152.622070,659.841248 
	C155.342865,659.429077 156.759583,659.214417 158.176300,658.999817 
	C156.661438,663.582397 154.679245,668.071106 153.736252,672.768494 
	C152.141327,680.713440 150.600586,688.754150 150.115768,696.819397 
	C149.123993,713.319031 150.289429,729.736023 154.830200,745.815613 
	C154.339600,746.091431 153.848999,746.367249 153.358398,746.643005 
	C147.906830,740.039490 142.455261,733.435913 136.979523,726.477905 
z"/>
<path fill="#1CE0CE" opacity="1.000000" stroke="none" 
	d="
M289.545868,339.955750 
	C288.630188,340.949585 287.426300,342.530273 285.920380,342.908661 
	C281.431580,344.036438 279.522644,346.647797 279.988617,351.172241 
	C280.072906,351.990753 280.000214,352.825500 280.000000,353.652740 
	C279.997192,363.693817 279.997192,363.693817 288.867981,365.542480 
	C284.533844,367.135376 279.987488,368.198944 275.628510,369.779236 
	C260.981934,375.089172 246.402115,380.583191 231.422241,386.059143 
	C228.375580,385.755310 225.703430,385.399170 222.238937,384.937408 
	C222.238937,379.306244 222.061310,373.267853 222.378281,367.255554 
	C222.447510,365.942139 224.321243,364.750854 225.293030,363.450348 
	C226.232544,362.192993 227.080643,360.867340 227.987473,359.195465 
	C239.246475,354.547028 250.330017,349.778046 261.777863,346.162598 
	C270.655792,343.358795 279.988861,341.996246 289.545868,339.955750 
z"/>
<path fill="#1299C4" opacity="1.000000" stroke="none" 
	d="
M485.003540,163.011810 
	C484.452576,162.780869 483.901581,162.549942 483.142212,162.099304 
	C485.371857,124.155701 469.036469,92.539497 449.334656,61.120461 
	C452.032776,61.914783 453.677460,62.398983 455.651184,63.043373 
	C459.439484,65.256241 462.882141,67.337654 466.361877,69.355171 
	C472.351379,72.827797 478.363983,76.260666 484.687836,80.286217 
	C485.338776,85.809746 485.910828,90.755203 485.953308,95.705200 
	C486.079956,110.475876 485.984283,125.248344 486.010284,140.020065 
	C486.016113,143.334869 486.361267,146.659210 486.197632,149.961685 
	C485.981598,154.320755 485.417816,158.662567 485.003540,163.011810 
z"/>
<path fill="#19E5D2" opacity="1.000000" stroke="none" 
	d="
M160.006226,625.004883 
	C160.005096,619.864380 159.954956,614.723267 160.014984,609.583435 
	C160.094009,602.819336 161.907608,601.170105 168.569809,600.954651 
	C172.603943,600.824219 176.623154,600.232788 180.821869,599.506714 
	C189.055710,600.128784 197.341751,600.228027 205.126511,602.253723 
	C217.696411,605.524475 229.939301,610.054321 242.306320,614.095215 
	C242.878525,614.282166 243.314255,614.886902 243.587585,615.619629 
	C241.139496,615.314148 238.934464,614.615967 236.692398,614.069763 
	C225.949265,611.452942 215.195572,608.883057 203.560562,611.007446 
	C194.741623,613.000977 186.368378,614.999268 177.620514,617.017822 
	C171.499359,619.693726 165.752792,622.349304 160.006226,625.004883 
z"/>
<path fill="#1CE0CE" opacity="1.000000" stroke="none" 
	d="
M159.864380,625.195679 
	C165.752792,622.349304 171.499359,619.693726 177.594101,617.434631 
	C177.636734,620.898315 177.184692,623.959839 177.065186,627.034180 
	C176.935120,630.380371 178.563004,632.263062 182.121613,632.037476 
	C172.477661,639.286011 163.810257,647.388184 158.495560,658.849976 
	C156.759583,659.214417 155.342865,659.429077 152.622070,659.841248 
	C153.095871,649.768738 153.540649,640.313049 153.994537,630.431091 
	C154.573013,629.503296 155.142395,629.001709 156.167679,628.195862 
	C157.416382,627.262085 158.209183,626.632507 159.001968,626.002991 
	C159.273056,625.833679 159.513245,625.628174 159.864380,625.195679 
z"/>
<path fill="#22D2C3" opacity="1.000000" stroke="none" 
	d="
M182.453461,631.892822 
	C178.563004,632.263062 176.935120,630.380371 177.065186,627.034180 
	C177.184692,623.959839 177.636734,620.898315 177.968689,617.414368 
	C186.368378,614.999268 194.741623,613.000977 203.634979,611.397095 
	C205.311707,615.728760 203.876617,621.463867 210.816605,621.406128 
	C210.874161,621.405640 210.934067,621.687500 210.992889,621.837524 
	C201.590363,625.141113 192.187820,628.444641 182.453461,631.892822 
z"/>
<path fill="#25CCBE" opacity="1.000000" stroke="none" 
	d="
M211.425568,621.906799 
	C210.934067,621.687500 210.874161,621.405640 210.816605,621.406128 
	C203.876617,621.463867 205.311707,615.728760 204.080673,611.401917 
	C215.195572,608.883057 225.949265,611.452942 236.692398,614.069763 
	C238.934464,614.615967 241.139496,615.314148 243.761536,615.949707 
	C244.161484,615.957153 244.612579,615.982300 245.042587,616.243896 
	C246.014816,616.650330 246.557022,616.795227 247.099228,616.940186 
	C247.099228,616.940186 247.032684,616.985046 247.182770,617.146484 
	C247.601028,617.526245 247.869186,617.744629 248.137360,617.963013 
	C249.870911,618.780334 251.604477,619.597717 253.338058,620.415039 
	C253.183441,620.994507 253.028824,621.574036 252.874207,622.153503 
	C239.149261,618.886536 225.492081,619.723206 211.425568,621.906799 
z"/>
<path fill="#16EBD7" opacity="1.000000" stroke="none" 
	d="
M166.653946,403.011932 
	C166.649460,405.344666 168.038055,408.925415 162.898926,408.315643 
	C163.794250,406.489105 165.073044,404.817871 166.653946,403.011932 
z"/>
<path fill="#1299C4" opacity="1.000000" stroke="none" 
	d="
M418.376038,241.905090 
	C418.937592,241.653564 419.869812,241.468552 420.898041,241.559601 
	C420.244934,241.880997 419.495819,241.926300 418.376038,241.905090 
z"/>
<path fill="#1299C4" opacity="1.000000" stroke="none" 
	d="
M645.973511,240.657532 
	C645.089966,240.254517 644.083252,239.568573 643.040527,238.539886 
	C643.953125,238.922989 644.901672,239.648804 645.973511,240.657532 
z"/>
<path fill="#1299C4" opacity="1.000000" stroke="none" 
	d="
M648.960876,242.643188 
	C648.143921,242.477829 647.189758,242.016510 646.144775,241.226166 
	C646.977173,241.380508 647.900452,241.863876 648.960876,242.643188 
z"/>
<path fill="#16EBD7" opacity="1.000000" stroke="none" 
	d="
M173.600967,395.929138 
	C173.471817,396.520752 172.986679,397.162262 172.189728,397.880402 
	C172.333603,397.297699 172.789276,396.638397 173.600967,395.929138 
z"/>
<path fill="#19E5D2" opacity="1.000000" stroke="none" 
	d="
M466.550934,383.039612 
	C466.696320,383.566437 466.552185,384.209808 466.142639,384.905090 
	C466.005341,384.356689 466.133362,383.756409 466.550934,383.039612 
z"/>
<path fill="#1391BB" opacity="1.000000" stroke="none" 
	d="
M529.088013,310.381836 
	C529.587524,310.271423 530.223572,310.431610 530.909668,310.855591 
	C530.381287,310.963715 529.802856,310.808075 529.088013,310.381836 
z"/>
<path fill="#19E5D2" opacity="1.000000" stroke="none" 
	d="
M246.965042,616.655762 
	C246.557022,616.795227 246.014816,616.650330 245.254059,616.323303 
	C245.633957,616.217896 246.232407,616.294556 246.965042,616.655762 
z"/>
<path fill="#1681AA" opacity="1.000000" stroke="none" 
	d="
M268.735199,200.187622 
	C268.799591,200.441605 268.580353,200.634003 268.132507,200.885635 
	C268.116577,200.706299 268.299164,200.433350 268.735199,200.187622 
z"/>
<path fill="#1395C0" opacity="1.000000" stroke="none" 
	d="
M590.846985,163.716446 
	C590.601379,163.774704 590.405762,163.542450 590.141541,163.075989 
	C590.309448,163.068588 590.584167,163.263306 590.846985,163.716446 
z"/>
<path fill="#16EBD7" opacity="1.000000" stroke="none" 
	d="
M174.718033,394.084473 
	C174.849976,394.361786 174.672363,394.570160 174.291458,394.867615 
	C174.229736,394.672638 174.336502,394.358917 174.718033,394.084473 
z"/>
<path fill="#148CB6" opacity="1.000000" stroke="none" 
	d="
M241.709488,215.161591 
	C241.765869,215.397797 241.533173,215.592377 241.066574,215.857086 
	C241.062775,215.699036 241.258682,215.429947 241.709488,215.161591 
z"/>
<path fill="#1299C4" opacity="1.000000" stroke="none" 
	d="
M638.024536,234.724045 
	C637.844299,234.837799 637.587646,234.678925 637.191650,234.325470 
	C637.329834,234.271835 637.628479,234.378677 638.024536,234.724045 
z"/>
<path fill="#19E5D2" opacity="1.000000" stroke="none" 
	d="
M248.037109,617.702026 
	C247.869186,617.744629 247.601028,617.526245 247.160843,617.112854 
	C247.304825,617.092285 247.620850,617.266663 248.037109,617.702026 
z"/>
<path fill="#1299C4" opacity="1.000000" stroke="none" 
	d="
M641.025513,236.723633 
	C640.845276,236.837509 640.588257,236.678696 640.191833,236.325073 
	C640.330017,236.271393 640.628845,236.378281 641.025513,236.723633 
z"/>
<path fill="#1681AA" opacity="1.000000" stroke="none" 
	d="
M542.708252,136.827911 
	C546.899170,144.482590 551.433838,151.700287 554.579041,159.479752 
	C559.534302,171.736130 563.568604,184.365509 567.947021,196.853043 
	C568.308777,197.884842 568.321777,199.038895 568.546448,200.447708 
	C560.636536,195.222183 553.128540,190.262177 545.308960,185.152039 
	C538.985107,181.825638 533.037109,178.518936 526.937988,175.519379 
	C522.928162,173.547333 520.908752,170.797424 520.951538,166.170578 
	C521.094727,150.710709 520.948853,135.248184 521.084167,119.788170 
	C521.099792,118.013039 522.188843,116.247307 522.780212,114.477219 
	C524.466675,115.570877 526.557983,116.333771 527.768982,117.815918 
	C532.800171,123.973473 537.565857,130.347977 542.708252,136.827911 
z"/>
<path fill="#1391BB" opacity="1.000000" stroke="none" 
	d="
M485.317749,163.233719 
	C485.417816,158.662567 485.981598,154.320755 486.197632,149.961685 
	C486.361267,146.659210 486.016113,143.334869 486.010284,140.020065 
	C485.984283,125.248344 486.079956,110.475876 485.953308,95.705200 
	C485.910828,90.755203 485.338776,85.809746 484.996185,80.436707 
	C489.023407,82.926605 493.089630,85.806320 497.095642,88.767471 
	C501.097809,91.725807 503.080048,95.592484 503.047791,100.729515 
	C502.925568,120.205391 503.023560,139.682541 502.984375,159.159119 
	C502.972015,165.303436 501.384399,166.523422 495.397552,165.339066 
	C492.145416,164.695694 488.887360,164.082458 485.317749,163.233719 
z"/>
<path fill="#000000" opacity="1.000000" stroke="none" 
	d="
M642.112366,367.884338 
	C641.690247,367.573212 641.460205,367.076355 641.230164,366.579468 
	C641.588501,366.684204 641.946838,366.788910 642.489685,367.103333 
	C642.550903,367.441589 642.427612,367.570129 642.112366,367.884338 
z"/>
<path fill="#19E5D2" opacity="1.000000" stroke="none" 
	d="
M158.666061,626.024536 
	C158.209183,626.632507 157.416382,627.262085 156.313965,627.947815 
	C156.779617,627.351440 157.554886,626.698792 158.666061,626.024536 
z"/>
<path fill="#148CB6" opacity="1.000000" stroke="none" 
	d="
M415.512573,163.492065 
	C415.521393,163.514023 415.503754,163.470123 415.512573,163.492065 
z"/>
</svg>