<?xml version="1.0" encoding="iso-8859-1"?>
<!-- Uploaded to: SVG Repo, www.svgrepo.com, Generator: SVG Repo Mixer Tools -->
<svg fill="#000000" height="800px" width="800px" version="1.1" id="Layer_1" xmlns="http://www.w3.org/2000/svg" xmlns:xlink="http://www.w3.org/1999/xlink" 
	 viewBox="0 0 392.663 392.663" xml:space="preserve">
<g>
	<g>
		<path d="M340.71,164.396c-24.954-10.279-41.115-34.327-41.115-61.285V10.925C299.595,4.913,294.747,0,288.67,0h-56.501
			c-5.883,0-10.667,4.655-10.925,10.537c-1.875,48.937-13.834,95.224-24.76,95.224c-10.925,0-22.885-46.287-24.76-95.224
			C171.466,4.655,166.682,0,160.799,0h-56.501c-6.012,0-10.925,4.848-10.925,10.925v92.186c0,26.958-16.162,51.071-41.115,61.285
			c-4.073,1.681-6.788,5.624-6.788,10.149v207.192c0,6.012,4.848,10.925,10.925,10.925H336.25c6.012,0,10.925-4.848,10.925-10.925
			V174.545C347.433,170.149,344.848,166.141,340.71,164.396z M67.579,259.879h71.111v36.655H67.579V259.879z M325.648,296.404
			h-71.111v-36.655h71.111V296.404z M325.648,237.964h-81.972c-6.012,0-10.925,4.848-10.925,10.925v58.44
			c0,6.012,4.848,10.925,10.925,10.925h81.972v52.558H67.579v-52.558h81.972c6.012,0,10.925-4.849,10.925-10.925v-58.505
			c0-6.012-4.848-10.925-10.925-10.925H67.579v-56.436c29.285-14.998,47.903-44.994,47.903-78.351V21.85h35.232
			c2.069,34.521,10.925,105.697,45.899,105.697s43.83-71.176,45.964-105.697h35.168v81.261c0,33.358,18.554,63.354,47.903,78.351
			V237.964z"/>
	</g>
</g>
</svg>